<svg xmlns="http://www.w3.org/2000/svg" version="1.1" xmlns:xlink="http://www.w3.org/1999/xlink" xmlns:svgjs="http://svgjs.dev/svgjs" width="1000" height="1125" viewBox="0 0 1000 1125"><g transform="matrix(1,0,0,1,1.7053025658242404e-13,0)"><svg viewBox="0 0 320 360" data-background-color="#ffffff" preserveAspectRatio="xMidYMid meet" height="1125" width="1000" xmlns="http://www.w3.org/2000/svg" xmlns:xlink="http://www.w3.org/1999/xlink"><g id="tight-bounds" transform="matrix(1,0,0,1,0,0)"><svg viewBox="0 0 320 360" height="360" width="320"><g><svg></svg></g><g><svg viewBox="0 0 320 360" height="360" width="320"><g><path xmlns="http://www.w3.org/2000/svg" d="M20.961 227.22l3.726 4.658-1.863-6.056c-0.466-2.795-3.726 0.466-1.863 1.398M25.153 224.425c1.397 2.329 2.795 4.658 2.795 6.987 0 3.261 2.795 4.658 5.123 5.589-3.261-3.726-5.124-13.974-7.918-12.576M204.017 26.929c7.918 0 15.371-0.932 23.756 0.931 20.495 5.124 37.729 15.371 49.374 29.811l32.606 52.169c1.397 13.042 4.192 27.482 3.726 43.319 3.261 0 2.795-4.658 6.521-5.59-3.726 9.316-5.59 20.961-6.521 34.469-2.329-7.453 0-18.632 0.466-24.687-3.261 5.124-5.124 1.397-5.124-0.932 0.466-3.726-1.397-3.261-2.795-4.658-5.124-4.658-8.384-9.782-12.11-17.7 2.329-6.055 2.795-14.905-4.658-19.563-2.329-1.397-5.124-3.726-6.521-7.453-1.863-5.124-5.124-11.179-4.193-19.097 0.466-2.329-6.987 5.124-11.179 1.863-18.166-12.576-36.332-27.016-58.224-39.127-11.645 0-20.029-4.192-24.221-9.316-3.726-4.658-0.932-10.713 4.658-11.179 3.261 0 6.987-0.932 9.782 0.932 0.466-1.863 2.329-4.192 4.657-4.192M157.904 16.215l0.932 0.466c4.658 0.932 6.987 7.453 12.11 5.124 0 3.261 0.466 6.521-0.466 8.85-1.397 3.726-5.59 3.726-8.85 3.726-31.208-1.863-49.374 11.179-68.471 22.358-5.124 3.261-10.713 5.59-14.906 9.782-20.029 18.632-41.921 35.866-47.045 70.335l-4.192 38.195c-0.466 4.192-5.124 8.384-4.192 13.508l3.26 22.824c-3.261-3.261-5.124 0.932-4.192 2.795 0.466 1.397 2.329 6.055 5.124 1.863 3.726 6.987 7.453 20.495 12.576 26.55 15.837 18.632 36.332 35.4 53.101 52.169 4.192-0.932 7.453-0.932 8.384-3.727 1.397 2.795-1.397 5.59-3.726 6.056 7.453 4.658 15.837 8.85 27.016 9.781 14.44 0.932 27.948 3.261 40.524 6.522 6.521-1.863 13.042-2.795 20.029-3.261 2.329 0 3.726-3.726 6.521-4.658l0.466-4.658c2.795 4.192 2.329-1.397 0.466-4.192 3.261 2.795 4.192 5.124 5.589 6.987 0-1.397 3.726-6.521 3.727-0.466l0.931-6.055c1.397-0.932 1.863 5.124 3.261 0.931 1.397-4.192 4.192-0.932 6.987-2.329-0.932 1.863-0.466 5.59 2.794 3.261l3.727-3.261c2.329 5.59 6.055 3.261 7.918 2.329 20.495-13.042 40.99-28.413 60.553-43.784l-0.466 6.055 2.329-7.453c2.329 2.329 4.192 0.466 5.124-0.931 2.795-4.658 6.521-9.316 12.577-13.508-7.453 20.029-16.303 35.866-27.482 48.908l-4.658 5.59c0 3.261-0.932 7.453-4.658 7.918-1.863 0.466-5.59-0.932-8.384 1.863-1.397 1.863 3.261 5.59-0.466 2.795-3.261-2.329-6.521 0-10.248 0.932-2.795 0.932 1.863 3.726 2.795 5.589 0.932 1.863 1.863 3.726 1.398 6.056l-5.124-5.59c-6.055 3.261-9.782 9.316-14.906 13.974-2.329 1.863-1.397 5.124-1.397 7.918-3.261 0-6.987-0.932-8.85 0.932-1.397 1.863-0.932 4.658-0.932 7.453-4.658-0.466-5.124-7.453-9.315-6.056-4.192 0.932-8.85 1.397-12.577 3.727 2.795 5.59-4.658 2.329-3.726 3.26-6.987-4.192-13.042-7.453-20.495-4.658-15.837-5.124-35.4-2.795-49.84-0.931 0-2.329 0.466-4.658-0.466-5.124-0.932 2.329-3.726 1.397-3.26 1.397-8.85-6.055-17.7-9.782-27.016-14.905-8.384 0.932-16.303-3.261-18.632-5.59-6.521-6.055-13.974-2.795-20.029-4.192-13.042-3.261-17.7-16.769-19.098-26.084-0.932-4.658-4.658-6.521-6.055-6.056-6.055-19.563-15.371-37.263-22.824-55.429-1.863-4.658-1.397-9.316-1.397-14.44 2.329 0.932 4.658 0.466 4.192-2.794-2.329-15.371-7.918-27.016-13.974-38.195 3.261-15.837 3.726-34.469 11.179-48.443 6.521-12.576 18.632-19.098 27.016-29.811 2.795-3.726 2.795-8.85 5.59-12.11 9.316-9.316 18.632-19.098 28.879-27.482 4.658-3.726 10.247 0 17.234-1.397 2.329-8.384 11.645-15.837 20.495-13.508 3.726 0.932 11.179-8.85 13.508-9.782 3.726-1.397 1.863 3.726 1.863 6.987 8.85-6.987 20.961-10.713 32.14-14.906" fill="#233565" fill-rule="nonzero" stroke="none" stroke-width="1" stroke-linecap="butt" stroke-linejoin="miter" stroke-miterlimit="10" stroke-dasharray="" stroke-dashoffset="0" font-family="none" font-weight="none" font-size="none" text-anchor="none" style="mix-blend-mode: normal" data-fill-palette-color="tertiary"></path></g><g transform="matrix(1,0,0,1,64,142.50132860938885)"><svg viewBox="0 0 192 74.99734278122233" height="74.99734278122233" width="192"><g><svg viewBox="0 0 192 74.99734278122233" height="74.99734278122233" width="192"><g><svg viewBox="0 0 192 74.99734278122233" height="74.99734278122233" width="192"><g><svg viewBox="0 0 192 74.99734278122233" height="74.99734278122233" width="192"><g id="textblocktransform"><svg viewBox="0 0 192 74.99734278122233" height="74.99734278122233" width="192" id="textblock"><g><svg viewBox="0 0 192 74.99734278122233" height="74.99734278122233" width="192"><g transform="matrix(1,0,0,1,0,0)"><svg width="192" viewBox="-2.0999999046325684 -43.599998474121094 112.88999938964844 44.099998474121094" height="74.99734278122233" data-palette-color="#233565"><path d="M21.2 0.5Q18.85 0.5 18.3-2.9L18.3-2.9Q17.85-5.65 17.85-12.75L17.85-12.75 16.6-11.8 10.5-11.8Q9.35-8.85 7.83-6.5 6.3-4.15 4.6-3L4.6-3 4.6-2.9Q5.25-2.6 5.85-2.6L5.85-2.6Q6.6-2.6 7.28-2.85 7.95-3.1 8.1-3.1L8.1-3.1Q8.45-3.1 8.45-2.85L8.45-2.85Q8.45-2.5 7.75-1.65L7.75-1.65Q6.95-0.85 6.05-0.43 5.15 0 4.35 0L4.35 0Q3.7 0 2.5-0.4L2.5-0.4Q1.3-0.8 0.7-0.8L0.7-0.8Q-0.05-0.8-0.83-0.4-1.6 0-1.85 0L-1.85 0Q-2.1 0-2.1-0.25L-2.1-0.25Q-2.1-0.75-1.7-1.43-1.3-2.1-0.75-2.35L-0.75-2.35Q-0.45-2.5-0.18-2.55 0.1-2.6 0.5-2.75L0.5-2.75Q2.45-3.5 3.93-5.48 5.4-7.45 6.45-9.93 7.5-12.4 8.85-16.25L8.85-16.25Q10.4-20.6 11.53-23.33 12.65-26.05 14.2-28.38 15.75-30.7 17.75-32L17.75-32 17.75-32.05Q17.05-32.15 16.7-32.25L16.7-32.25Q16.5-32.3 15.48-32.45 14.45-32.6 12.85-32.6L12.85-32.6Q10.15-32.6 8.33-31.6 6.5-30.6 4.9-28.35L4.9-28.35Q4.4-27.55 4.1-27.55L4.1-27.55Q3.8-27.55 3.8-27.95L3.8-27.95 3.85-28.45Q4.6-31.5 7.28-33.35 9.95-35.2 13.5-35.2L13.5-35.2Q14.95-35.2 17.85-34.7L17.85-34.7Q20.55-34.2 21.7-34.2L21.7-34.2Q23-34.2 24.45-34.7L24.45-34.7 24.45-34.65Q23.1-32.4 22.35-27.63 21.6-22.85 21.6-15.8L21.6-15.8Q21.6-8.55 21.9-6L21.9-6Q22-4.55 22.33-3.83 22.65-3.1 23.45-3.1L23.45-3.1Q23.95-3.1 24.43-3.35 24.9-3.6 25.7-4.1L25.7-4.1Q26.65-4.75 26.9-4.75L26.9-4.75Q27.2-4.75 27.2-4.55L27.2-4.55Q27.2-4.15 26.9-3.6L26.9-3.6Q25.95-1.9 24.33-0.7 22.7 0.5 21.2 0.5L21.2 0.5ZM11.4-14.8L17.9-14.8Q18-19.4 18.55-23.93 19.1-28.45 19.95-31.3L19.95-31.3 19.9-31.3Q17.95-30.4 16.13-26.95 14.3-23.5 11.95-16.5L11.95-16.5 11.4-14.8ZM30.5 0.5Q30.3 0.5 30.17 0.43 30.05 0.35 30.05 0.25L30.05 0.25Q30.05 0.1 30.35-0.4 30.65-0.9 30.8-1.8L30.8-1.8Q31-2.85 31.15-3.73 31.3-4.6 31.45-5.35L31.45-5.35Q32.7-12.2 33.12-14.93 33.55-17.65 33.5-18.9L33.5-18.9Q33.5-19.55 33.4-19.85 33.3-20.15 32.95-20.15L32.95-20.15Q32.5-20.15 31.8-19.4 31.1-18.65 30.5-17.65L30.5-17.65Q30.25-17.2 30.05-16.88 29.85-16.55 29.72-16.4 29.6-16.25 29.45-16.25L29.45-16.25Q29.25-16.25 29.15-16.4 29.05-16.55 29.05-16.8L29.05-16.8Q29.05-17.75 30.12-19.45 31.2-21.15 32.67-22.48 34.15-23.8 35.3-23.8L35.3-23.8Q36.25-23.8 36.62-23.05 37-22.3 37-20.7L37-20.7Q37-18.5 36.05-14.75L36.05-14.75 36.15-14.75Q40.9-23.8 44.95-23.8L44.95-23.8Q46-23.8 46.57-23.23 47.15-22.65 47.15-21.6L47.15-21.6Q47.15-20.5 46.67-19.35 46.2-18.2 45.52-17.45 44.85-16.7 44.3-16.7L44.3-16.7Q43.95-16.7 44.05-17.15L44.05-17.15Q44.2-17.85 44.2-18.25L44.2-18.25Q44.2-19.45 42.9-19.45L42.9-19.45Q41.35-19.45 39.8-17.65 38.25-15.85 37.07-13.25 35.9-10.65 35.45-8.5L35.45-8.5Q34.85-6.2 34.7-3.7L34.7-3.7Q34.6-2.75 33.82-1.78 33.05-0.8 32.05-0.15 31.05 0.5 30.5 0.5L30.5 0.5ZM49.7 0.5Q49.25 0.5 49.25 0.2L49.25 0.2Q49.25 0 49.47-0.68 49.7-1.35 50.1-3L50.1-3Q51.1-7.15 52.5-16.85L52.5-16.85Q52.8-18.75 52.8-19.5L52.8-19.5Q52.8-20.15 52.5-20.15L52.5-20.15Q51.65-20.15 49.95-17.15L49.95-17.15Q49.7-16.7 49.5-16.38 49.3-16.05 49.17-15.9 49.05-15.75 48.9-15.75L48.9-15.75Q48.5-15.75 48.5-16.25L48.5-16.25Q48.5-17.25 49.6-19.1 50.7-20.95 52.2-22.38 53.7-23.8 54.9-23.8L54.9-23.8Q55.7-23.8 56.05-23.1 56.4-22.4 56.4-21.35L56.4-21.35Q56.4-19.7 55.6-14.9L55.6-14.9 55.65-14.9Q57.95-18.95 60.7-21.38 63.45-23.8 65.45-23.8L65.45-23.8Q67.55-23.8 67.55-20.85L67.55-20.85Q67.55-19.75 67.1-17.15L67.1-17.15 65.95-11.15Q64.7-4.8 64.7-3.95L64.7-3.95Q64.7-3.6 64.87-3.33 65.05-3.05 65.45-3.05L65.45-3.05Q66.8-3.05 68.55-7.15L68.55-7.15Q68.7-7.7 69.05-7.7L69.05-7.7Q69.35-7.7 69.35-7.1L69.35-7.1Q69.35-6.65 69.3-6.3L69.3-6.3Q68.95-4.5 67.85-2.93 66.75-1.35 65.4-0.43 64.05 0.5 62.95 0.5L62.95 0.5Q61.9 0.5 61.52-0.38 61.15-1.25 61.15-2.3L61.15-2.3Q61.15-4.55 62.4-10.4L62.4-10.4Q63.6-16.1 63.7-18.3L63.7-18.3Q63.75-19.2 63.57-19.58 63.4-19.95 62.75-19.95L62.75-19.95Q61.2-19.95 59.42-17.9 57.65-15.85 56.25-12.88 54.85-9.9 54.4-7.45L54.4-7.45 53.6-3.1Q53.3-1.8 52-0.65 50.7 0.5 49.7 0.5L49.7 0.5ZM77.04 0.5Q74.94 0.5 73.87-1.13 72.79-2.75 72.79-5.65L72.79-5.65Q72.79-9.7 74.74-13.95 76.69-18.2 79.57-21 82.44-23.8 85.04-23.8L85.04-23.8Q86.99-23.8 88.04-22.08 89.09-20.35 89.09-17.55L89.09-17.55Q89.09-13.8 87.27-9.55 85.44-5.3 82.64-2.4 79.84 0.5 77.04 0.5L77.04 0.5ZM79.49-2.8Q81.14-2.8 82.49-4.48 83.84-6.15 84.64-8.93 85.44-11.7 85.44-14.8L85.44-14.8Q85.44-20.5 82.49-20.5L82.49-20.5Q80.64-20.5 79.27-18.5 77.89-16.5 77.17-13.63 76.44-10.75 76.44-8.25L76.44-8.25Q76.44-5.85 77.17-4.33 77.89-2.8 79.49-2.8L79.49-2.8ZM95.69 0.5Q94.89 0.5 93.79 0.3L93.79 0.3Q92.89 0.1 92.34 0.1L92.34 0.1Q91.94 0.1 91.64 0.15 91.34 0.2 91.24 0.2L91.24 0.2 91.19 0.2Q91.64-1 91.84-2.08 92.04-3.15 92.19-4.1L92.19-4.1 95.19-22Q96.29-29.05 97.97-33.45 99.64-37.85 102.24-40.3L102.24-40.3Q103.69-41.65 104.94-42.15 106.19-42.65 108.44-43.05L108.44-43.05Q109.14-43.2 109.72-43.4 110.29-43.6 110.49-43.6L110.49-43.6Q110.79-43.6 110.79-43.2L110.79-43.2Q110.79-42.5 109.84-41.75L109.84-41.75Q109.34-41.35 108.92-41.2 108.49-41.05 108.12-40.98 107.74-40.9 107.59-40.85L107.59-40.85Q106.04-40.65 105.06-40.1 104.09-39.55 103.09-38.15L103.09-38.15Q101.59-35.95 100.59-32.43 99.59-28.9 98.54-22.4L98.54-22.4 97.34-15 97.39-15Q99.24-18.35 101.92-21.08 104.59-23.8 106.54-23.8L106.54-23.8Q107.74-23.8 108.42-22.58 109.09-21.35 109.09-18.95L109.09-18.95Q109.09-13.85 107.14-9.35 105.19-4.85 102.09-2.18 98.99 0.5 95.69 0.5L95.69 0.5ZM98.34-2.5Q100.44-2.5 102.06-4.75 103.69-7 104.54-10.35 105.39-13.7 105.39-16.75L105.39-16.75Q105.39-18.4 105.14-19.05 104.89-19.7 104.24-19.7L104.24-19.7Q102.99-19.7 101.22-17.68 99.44-15.65 97.94-12.58 96.44-9.5 95.89-6.5L95.89-6.5 95.44-3.4Q96.74-2.5 98.34-2.5L98.34-2.5Z" opacity="1" transform="matrix(1,0,0,1,0,0)" fill="#233565" class="wordmark-text-0" data-fill-palette-color="primary" id="text-0"></path></svg></g></svg></g></svg></g></svg></g><g></g></svg></g></svg></g></svg></g></svg></g><defs></defs></svg><rect width="320" height="360" fill="none" stroke="none" visibility="hidden"></rect></g></svg></g></svg>